<?xml version="1.0" encoding="UTF-8" standalone="no"?>
<!-- Created with Inkscape (http://www.inkscape.org/) -->

<svg
   width="175"
   height="175"
   viewBox="0 0 175 175"
   id="svg2"
   version="1.1"
   inkscape:version="1.1.2 (b8e25be833, 2022-02-05)"
   sodipodi:docname="diamonds.svg"
   xmlns:inkscape="http://www.inkscape.org/namespaces/inkscape"
   xmlns:sodipodi="http://sodipodi.sourceforge.net/DTD/sodipodi-0.dtd"
   xmlns="http://www.w3.org/2000/svg"
   xmlns:svg="http://www.w3.org/2000/svg"
   xmlns:rdf="http://www.w3.org/1999/02/22-rdf-syntax-ns#"
   xmlns:cc="http://creativecommons.org/ns#"
   xmlns:dc="http://purl.org/dc/elements/1.1/">
  <defs
     id="defs4" />
  <sodipodi:namedview
     id="base"
     pagecolor="#ffffff"
     bordercolor="#666666"
     borderopacity="1.0"
     inkscape:pageopacity="0.0"
     inkscape:pageshadow="2"
     inkscape:zoom="3.404"
     inkscape:cx="107.66745"
     inkscape:cy="54.641598"
     inkscape:document-units="px"
     inkscape:current-layer="layer1"
     showgrid="false"
     units="px"
     inkscape:window-width="1920"
     inkscape:window-height="1017"
     inkscape:window-x="-8"
     inkscape:window-y="-8"
     inkscape:window-maximized="1"
     inkscape:pagecheckerboard="0"
     width="175px" />
  <metadata
     id="metadata7">
    <rdf:RDF>
      <cc:Work
         rdf:about="">
        <dc:format>image/svg+xml</dc:format>
        <dc:type
           rdf:resource="http://purl.org/dc/dcmitype/StillImage" />
      </cc:Work>
    </rdf:RDF>
  </metadata>
  <g
     inkscape:label="Layer 1"
     inkscape:groupmode="layer"
     id="layer1"
     transform="translate(0,-877.36216)">
    <path
       style="fill:#ff0000;fill-opacity:1;stroke:none"
       d="m 83.506838,1031.7653 c -5.541272,-9.3775 -23.815365,-34.56521 -37.296872,-51.40729 -6.776523,-8.46573 -12.320951,-15.70775 -12.320951,-16.09337 0,-0.38562 2.498012,-3.68932 5.551138,-7.34155 14.779126,-17.67921 34.688967,-44.7342 42.813135,-58.17773 2.491067,-4.12211 4.836029,-7.13807 5.211026,-6.70213 0.374997,0.43594 3.911379,5.74741 7.858624,11.80326 8.617722,13.22128 27.372692,38.4164 38.049682,51.11535 l 7.73836,9.2038 -7.73836,9.2038 c -14.0352,16.69312 -34.035225,44.26126 -44.489708,61.32496 l -1.855601,3.0286 z"
       id="path5878"
       inkscape:connector-curvature="0" />
  </g>
</svg>
