<?xml version="1.0" encoding="UTF-8" standalone="no"?>
<!-- Created with Inkscape (http://www.inkscape.org/) -->
<svg
   xmlns:dc="http://purl.org/dc/elements/1.1/"
   xmlns:cc="http://web.resource.org/cc/"
   xmlns:rdf="http://www.w3.org/1999/02/22-rdf-syntax-ns#"
   xmlns:svg="http://www.w3.org/2000/svg"
   xmlns="http://www.w3.org/2000/svg"
   xmlns:sodipodi="http://sodipodi.sourceforge.net/DTD/sodipodi-0.dtd"
   xmlns:inkscape="http://www.inkscape.org/namespaces/inkscape"
   width="200"
   height="200"
   id="svg1920"
   sodipodi:version="0.32"
   inkscape:version="0.44+devel"
   sodipodi:docbase="C:\Documents and Settings\Flanker\Desktop"
   sodipodi:docname="ads.svg"
   inkscape:output_extension="org.inkscape.output.svg.inkscape"
   version="1.0"
   sodipodi:modified="true">
  <defs
     id="defs1922" />
  <sodipodi:namedview
     id="base"
     pagecolor="#ffffff"
     bordercolor="#666666"
     borderopacity="1.0"
     inkscape:pageopacity="0.0"
     inkscape:pageshadow="2"
     inkscape:zoom="4.015"
     inkscape:cx="100"
     inkscape:cy="100"
     inkscape:document-units="px"
     inkscape:current-layer="layer1"
     inkscape:window-width="1280"
     inkscape:window-height="1003"
     inkscape:window-x="-4"
     inkscape:window-y="-4"
     width="200px"
     height="200px" />
  <metadata
     id="metadata1925">
    <rdf:RDF>
      <cc:Work
         rdf:about="">
        <dc:format>image/svg+xml</dc:format>
        <dc:type
           rdf:resource="http://purl.org/dc/dcmitype/StillImage" />
      </cc:Work>
    </rdf:RDF>
  </metadata>
  <g
     inkscape:label="Livello 1"
     inkscape:groupmode="layer"
     id="layer1"
     transform="translate(-195.5937,-384.5002)">
    <g
       id="g1986"
       transform="translate(1.334245,0.966375)">
      <path
         id="path1939"
         d="M 233.67878,387.99261 C 232.46008,393.05519 230.58508,397.60206 228.05378,401.58636 C 225.52259,405.5708 221.01477,410.48486 214.52253,416.36761 C 208.03039,422.25048 203.91323,426.75828 202.17878,429.89886 C 200.44449,433.03952 199.58509,436.22702 199.58503,439.46136 C 199.58511,443.96139 201.08509,447.71138 204.08503,450.71136 C 207.08511,453.71138 210.74134,455.21137 215.05378,455.21136 C 222.77369,455.21135 228.74469,449.57456 232.67878,443.43011 C 232.37984,450.14857 231.27283,455.52721 229.33503,459.55511 C 227.24915,463.89104 224.05522,467.47909 219.74128,470.33636 C 216.83647,472.26031 211.60073,473.94574 204.05378,475.39886 L 203.49128,477.80511 L 233.64753,477.80511 L 263.83503,477.80511 L 263.27253,475.39886 C 255.72557,473.94573 250.48983,472.26031 247.58503,470.33636 C 243.27109,467.47907 240.07717,463.89105 237.99128,459.55511 C 236.05637,455.53321 234.94845,450.1658 234.64753,443.46136 C 238.58188,449.59723 244.59308,455.21135 252.30378,455.21136 C 256.61623,455.21137 260.27245,453.71138 263.27253,450.71136 C 266.27244,447.71138 267.77245,443.96139 267.77253,439.46136 C 267.77244,436.22702 266.91307,433.03952 265.17878,429.89886 C 263.44431,426.75828 259.32716,422.25048 252.83503,416.36761 C 246.3428,410.48486 241.83498,405.5708 239.30378,401.58636 C 236.77249,397.60206 234.89749,393.05519 233.67878,387.99261 z "
         style="font-size:144px;font-style:normal;font-weight:normal;fill:#222032;fill-opacity:1;stroke:none;stroke-width:1px;stroke-linecap:butt;stroke-linejoin:miter;stroke-opacity:1;font-family:Bitstream Vera Sans" />
      <path
         id="path1937"
         d="M 345.40263,491.68441 C 339.87144,491.68448 335.23863,493.54387 331.46513,497.24691 C 327.69176,500.9501 325.80894,505.35635 325.80888,510.46566 C 325.80894,514.63758 327.41832,518.99697 330.65263,523.59066 C 327.85077,521.25613 325.05715,519.87191 319.74638,519.87191 C 309.35517,519.8719 301.90263,528.4017 301.90263,539.05941 C 301.9026,550.3605 310.15028,558.96567 321.15263,558.96566 C 332.16833,558.96564 340.4344,551.45174 344.49638,542.30941 C 344.30893,549.76255 343.17611,555.661 341.09013,559.99691 C 339.00425,564.33286 335.80894,567.9188 331.49638,570.77816 C 328.59019,572.70003 323.35583,574.38754 315.80888,575.84066 L 315.24638,578.24691 L 345.40263,578.24691 L 375.59013,578.24691 L 375.02763,575.84066 C 367.48068,574.38754 362.24631,572.70003 359.34013,570.77816 C 355.02757,567.9188 351.83227,564.33286 349.74638,559.99691 C 347.6604,555.661 346.52757,549.76255 346.34013,542.30941 C 350.40211,551.45174 358.66817,558.96564 369.68388,558.96566 C 380.68623,558.96567 388.9339,550.3605 388.93388,539.05941 C 388.93388,528.4017 381.48133,519.8719 371.09013,519.87191 C 365.77936,519.87191 362.98573,521.25613 360.18388,523.59066 C 363.41819,518.99697 365.02758,514.63758 365.02763,510.46566 C 365.02757,505.35635 363.14475,500.9501 359.37138,497.24691 C 355.59788,493.54387 350.93382,491.68448 345.40263,491.68441 z "
         style="font-size:144px;font-style:normal;font-weight:normal;fill:#222032;fill-opacity:1;stroke:none;stroke-width:1px;stroke-linecap:butt;stroke-linejoin:miter;stroke-opacity:1;font-family:Bitstream Vera Sans" />
      <path
         id="path1935"
         d="M 345.55888,477.01996 C 344.10571,471.48871 342.0315,466.29731 339.33622,461.44574 C 336.64088,456.59419 331.42604,449.05904 323.69169,438.84027 C 318.0198,431.34031 314.52762,426.5825 313.21513,424.56683 C 311.05887,421.28563 309.50028,418.27392 308.53935,415.53167 C 307.5784,412.78955 307.09794,410.01221 307.09794,407.19964 C 307.09794,401.99659 308.83231,397.63722 312.30107,394.12152 C 315.7698,390.60598 320.05886,388.84817 325.16825,388.84808 C 330.32448,388.84817 334.80103,390.67629 338.59794,394.33246 C 341.45728,397.05128 343.77759,401.10597 345.55888,406.49652 C 347.10571,401.19972 349.28539,397.16847 352.09794,394.40277 C 355.98851,390.65285 360.48851,388.77785 365.59794,388.77777 C 370.66037,388.77785 374.94943,390.52395 378.46513,394.01605 C 381.98067,397.50831 383.73849,401.66847 383.73857,406.49652 C 383.73849,410.71533 382.70724,415.10986 380.64482,419.68011 C 378.58224,424.25048 374.59787,430.23875 368.69169,437.64496 C 361.00413,447.34811 355.40258,455.31685 351.887,461.55121 C 349.12133,466.47309 347.01196,471.62933 345.55888,477.01996 L 345.55888,477.01996 z "
         style="font-size:144px;font-style:normal;font-weight:normal;fill:#D9262A;fill-opacity:1;stroke:none;stroke-width:1px;stroke-linecap:butt;stroke-linejoin:miter;stroke-opacity:1;font-family:Bitstream Vera Sans" />
      <path
         id="text1928"
         d="M 233.67878,490.85629 C 224.18721,506.4378 213.29206,521.14034 201.33503,534.91879 C 213.30365,548.69044 224.38355,563.35598 233.67878,579.07504 C 242.97401,563.35598 254.05391,548.69044 266.02253,534.91879 C 254.0655,521.14034 243.17035,506.4378 233.67878,490.85629 z "
         style="font-size:144px;font-style:normal;font-weight:normal;fill:#D9262A;fill-opacity:1;stroke:none;stroke-width:1px;stroke-linecap:butt;stroke-linejoin:miter;stroke-opacity:1;font-family:Bitstream Vera Sans" />
    </g>
  </g>
</svg>
